<svg xmlns="http://www.w3.org/2000/svg" viewBox="0 0 52.4 38.2"><path d="M40.2 38.2h-28c-3.3 0-6.1-2.5-6.2-5.7L0 6.4V6c0-3.3 2.8-6 6.2-6h40c3.4 0 6.2 2.7 6.2 5.9v.4l-6 26.2c-.1 3.2-2.9 5.7-6.2 5.7zM4 5.7l6 26.2v.4c0 1.1 1 1.9 2.2 1.9h28c1.2 0 2.2-.9 2.2-1.9v-.4l5.9-26.1c-.1-1-1.1-1.7-2.2-1.7h-40c-1-.1-2 .7-2.1 1.6z"/><path d="M18.2 29.1c-2 0-4-.9-5.5-2.7-.7-.8-.6-2.1.2-2.8.8-.7 2.1-.6 2.8.2 1.1 1.3 2.6 1.7 3.7.9 1-.6 1.5-2 1.2-3.2-.3-1.1-1.5-2-2.7-2.1-.9 0-1.8-.7-1.9-1.6-.2-.9.3-1.9 1.2-2.2.9-.4 1.3-.7 1.5-1.1.2-.3.2-.9.1-1.2-.1-.2-.8-.5-1.6-.4-.3 0-.7.2-.9.3-.6.9-1.7 1.2-2.7.7-1-.5-1.3-1.8-.8-2.7 1-1.7 3.2-2.1 3.8-2.2 2.1-.3 4.7.5 5.8 2.7.7 1.6.5 3.7-.4 5.1 0 0 0 .1-.1.1 1.2.9 2.1 2.1 2.5 3.6.8 2.8-.4 6-2.9 7.6-1 .6-2.1 1-3.3 1zm13.9-.2h-.2c-4-.2-7-4.7-6.7-10.4.2-5.6 3.6-9.9 7.6-9.7 2.1.1 3.9 1.4 5.2 3.5 1.1 1.9 1.6 4.3 1.5 6.8-.3 5.5-3.5 9.8-7.4 9.8zm.5-16.1c-1.5 0-3.3 2.4-3.4 5.9-.2 3.5 1.4 6.1 2.9 6.2h.1c1.5 0 3.2-2.4 3.4-5.9.1-1.7-.3-3.4-1-4.7-.7-.9-1.4-1.5-2-1.5zm8.5.4c-1.6 0-2.9-1.4-2.9-3 0-1.7 1.3-3 2.9-3s2.9 1.4 2.9 3c0 1.7-1.3 3-2.9 3zm0-4c-.6 0-1.1.4-1.1 1 0 .5.5 1 1.1 1s1.1-.4 1.1-1c-.1-.5-.5-1-1.1-1z"/></svg>