<svg xmlns="http://www.w3.org/2000/svg" viewBox="0 0 45.4 36.3"><path d="M42.1 2.5C37.7-1 29.6-.8 18 3.1c-1 .4-1.6 1.5-1.3 2.5.4 1 1.5 1.6 2.5 1.3 13.3-4.5 18.5-2.8 20.3-1.3 2 1.5 1.8 3.8 1.8 3.9v2.1c-.7-.3-1.5-.4-2.2-.4h-.2C35.3 11.6 3 15.9 0 30v.4c0 3.3 2.8 5.9 6.2 5.9h33c3.4 0 6.2-2.7 6.2-5.9V9.7c.1-.7.1-4.5-3.3-7.2zm-.7 27.9c0 1.1-1 1.9-2.2 1.9h-33c-1.2 0-2.1-.8-2.2-1.7 2.3-9.4 26.1-14.3 35.3-15.5 1.2 0 2.1.9 2.1 1.9v13.4z"/><path d="M24.7 22.2c-1.9 0-3.5 1.6-3.5 3.5s1.6 3.5 3.5 3.5 3.5-1.6 3.5-3.5-1.6-3.5-3.5-3.5z"/></svg>