<svg xmlns="http://www.w3.org/2000/svg" viewBox="0 0 46.4 49.5"><path d="M41.6 41.8c2.2-.3 3.6-1.1 4.4-2.5.5-1 .9-2.6-.6-4.8L35 15.3l7.9-8.4c.8-.8.7-2.1-.1-2.8-.8-.8-2.1-.8-2.8.1l-7 7.4-3.2-6c-.6-1.3-3-5.5-6.1-5.6h-.1c-3 0-4.1 1.8-5.5 4.4-.2.3-.4.7-.6 1.1l-3.6 6.7-8-8.4C5.1 3 3.9 3 3 3.7c-.8.8-.8 2 0 2.8l8.8 9.3-10 18.6c-1.4 2.3-1.1 3.9-.5 4.9.6 1.1 1.8 1.9 3.5 2.3L.6 46c-.8.8-.7 2.1.1 2.8.3.5.8.7 1.3.7s1.1-.2 1.5-.6L9.9 42h26.3l6.4 6.9c.4.4.9.6 1.5.6.5 0 1-.2 1.4-.5.8-.8.8-2 .1-2.8l-4-4.4zm.3-5.3l.1.1c.3.4.4.7.4.8-.2.1-1 .5-3.2.5H38L25.8 25.1l6.3-6.7 9.8 18.1zm-21.1-29c.2-.4.4-.8.6-1.1C22.8 4 22.9 4 23.5 4c.6.1 1.9 1.8 2.7 3.4l3.9 7.2-7 7.5-6.5-6.9 4.2-7.7zM7.9 38c-2.2 0-3-.4-3.2-.5 0-.1.1-.5.4-.9 0 0 0-.1.1-.1L14.6 19l5.7 6.1L8.2 38h-.3zm5.8 0l9.4-10 9.4 10H13.7z"/></svg>