<svg xmlns="http://www.w3.org/2000/svg" viewBox="0 0 40.7 40.7"><path d="M16.7 32.6c-1.1 0-2-.9-2-2V12.8c0-1 .8-1.9 1.8-2 .7-.1 6.8-.7 10 2.2 1.2 1.1 1.9 2.6 1.9 4.4 0 1.8-.7 3.3-1.9 4.5-2.2 2.1-5.7 2.5-7.8 2.6v6.1c0 1.2-.9 2-2 2zm2-17.8v5.8c1.6-.1 3.9-.4 5-1.5.4-.4.6-.9.6-1.6 0-.6-.2-1-.6-1.4-.9-1-3.2-1.3-5-1.3z"/><path d="M20.3 40.7C9.1 40.7 0 31.5 0 20.3S9.1 0 20.3 0s20.3 9.1 20.3 20.3-9.1 20.4-20.3 20.4zm0-36.7C11.3 4 4 11.3 4 20.3s7.3 16.3 16.3 16.3 16.3-7.3 16.3-16.3c.1-9-7.3-16.3-16.3-16.3z"/></svg>