<svg xmlns="http://www.w3.org/2000/svg" viewBox="0 0 29.9 41.6"><path d="M25.6 30.8c-.2 1.5-.5 4.6-1.9 5.7-.8.6-4 .7-5.1.8-3.6.2-10.4.2-12.7-2.6-2.4-2.9-1.6-8.3-1.5-12.1h.1c3.6.1 7.2.1 10.7.1.1 1.2.1 2.4.2 3.6.2 2.7 4.5 2.7 4.3 0-.2-2.6-.4-5.3-.3-7.9.1-1.2.1-2.4.2-3.5.1-1.2-1-2-2.1-2.1-1.2-.1-2 1.1-2.1 2.1-.1 1.2-.2 2.4-.2 3.5v.1c-3.6 0-7.1.1-10.7-.1h-.1c-.1-3.3-.3-6.9.5-9.7C6.1 4 13.7 4 17.9 4.3c6.2.5 6.3 1.2 7 6.3.4 2.7 4.5 1.5 4.1-1.1-.3-2.2-.1-4.5-1.7-6.2C24.8.5 19.8.2 16.3.1 9.3-.2 1.1 1.6.6 9.6.1 16.4-.2 23.7.3 30.5c.4 5 1.9 8.6 7 9.9 5.2 1.4 11.2 1.5 16.5.2 4.6-1.1 5.6-5.5 6-9.8.3-2.7-3.9-2.7-4.2 0z"/></svg>