<svg xmlns="http://www.w3.org/2000/svg" viewBox="0 0 100.7 94.8"><path d="M99.2 45.8h-9.6l4.9-15.1c.3-.8-.2-1.6-1-1.9-.8-.3-1.6.2-1.9 1l-5.2 16H65.9l4.3-9.5c.2-.4.2-.9 0-1.3s-.6-.7-1.1-.8l-9.9-1.7 2.9-6.1 18.5 2.5h.2c.7 0 1.4-.5 1.5-1.3.1-.8-.5-1.6-1.3-1.7l-17.6-2.4 3.3-6.8 19.2 2.6h.2c.7 0 1.4-.5 1.5-1.3.1-.8-.5-1.6-1.3-1.7l-18.2-2.5L72.9 4c.4-.7 0-1.6-.7-2-.7-.4-1.6 0-2 .7l-4.6 9.4L54.9.5c-.6-.6-1.5-.6-2.1-.1-.6.6-.6 1.5-.1 2.1L64.2 15l-3.5 7.2L49.5 10c-.5-.6-1.5-.6-2.1 0-.2.2-.3.4-.4.7L37 23.3l-4-6.6L43.9 3c.5-.6.4-1.6-.2-2.1-.6-.5-1.6-.4-2.1.2L31.4 14l-5.7-9.4c-.4-.7-1.4-.9-2.1-.5-.7.4-.9 1.4-.5 2.1l5.5 9.1-15.1 1.4c-.8.1-1.4.8-1.4 1.6.1.8.7 1.4 1.5 1.4h.1l16.6-1.5 3.9 6.4L19.1 26c-.8.1-1.4.8-1.4 1.6.1.8.7 1.4 1.5 1.4h.1L36 27.4l3.6 6-9.5 1.5c-.5.1-.9.4-1.1.8-.2.4-.2 1 .1 1.4 2.5 4.4 4.1 7 5.1 8.7H15.1L7.6 29c-.3-.8-1.2-1.1-2-.8-.8.3-1.1 1.2-.8 2l7 15.6H1.5c-.8 0-1.5.7-1.5 1.5s.7 1.5 1.5 1.5h10.4L7.5 64.3c-.2.8.2 1.6 1 1.9.1 0 .3.1.4.1.7 0 1.3-.4 1.4-1.1L15 48.9h19.6l-4.7 8.7c-.2.4-.2 1 0 1.4.2.4.7.7 1.2.8l11.1 1.1-3.5 7.2-18.8-2c-.8-.1-1.6.5-1.7 1.3-.1.8.5 1.6 1.3 1.7L37.2 71l-2.9 6-18.7-2c-.8-.1-1.6.5-1.7 1.3-.1.8.5 1.6 1.3 1.7L33 79.9l-5.2 10.8c-.4.7 0 1.6.7 2 .2.1.4.1.7.1.6 0 1.1-.3 1.4-.8l5-10.3 10.3 11.8c.3.3.7.5 1.1.5.4 0 .7-.1 1-.4.6-.5.7-1.5.1-2.1L36.9 78.7l2.8-5.8 10.2 11.7c.3.3.6.5 1 .5 0 .1.1.1.2.1.3.2.6.3.9.3.4 0 .9-.2 1.2-.6l10-12.6 4 6.6-10.8 13.4c-.5.6-.4 1.6.2 2.1.3.2.6.3.9.3.4 0 .9-.2 1.2-.6l10-12.6 4.9 8.1c.3.5.8.7 1.3.7.3 0 .5-.1.8-.2.7-.4.9-1.4.5-2.1l-4.8-8 17.8-2.7c.8-.1 1.4-.9 1.3-1.7s-.9-1.4-1.7-1.3l-19.1 2.9-3.9-6.5L83.6 68c.8-.1 1.4-.9 1.3-1.7-.1-.8-.9-1.4-1.7-1.3l-19.1 3-4.3-7.1 9.6-2.3c.5-.1.8-.4 1-.8s.2-.9 0-1.3l-4-7.6h20.1L93.3 66c.2.6.8.9 1.4.9.2 0 .4 0 .6-.1.8-.3 1.1-1.2.8-2l-6.5-16.1h9.6c.8 0 1.5-.7 1.5-1.5s-.7-1.4-1.5-1.4zm-32.6-9l-4.1 9h-9.9l5.1-10.5 8.9 1.5zM50 44.7l-6.1-10 5.3-7.4 5.8 6.9-5 10.5zm-1.4-31.2l10.8 11.6-2.9 6.1-6.2-7.3c-.3-.4-.7-.5-1.2-.5s-.9.3-1.2.6l-5.7 8-3.5-6 9.9-12.5zm-15.8 24l8.5-1.4 5.9 9.7h-9.4c-.9-1.3-3-4.8-5-8.3zm.7 19.5l4.4-8.2h10L43.5 58l-10-1zm16.8-6.1l5.6 9.2-4.6 6.5-5.2-7.2 4.2-8.5zM51.7 82L41.1 69.9l3.5-7.3 5.5 7.6c.3.4.7.6 1.2.6s.9-.2 1.2-.6l5-7.2 4 6.6L51.7 82zm15.1-25.9l-8.6 2.1-5.7-9.4h10.4l3.9 7.3z"/></svg>