<svg xmlns="http://www.w3.org/2000/svg" viewBox="0 0 36 36"><path d="M27.8 19.5c-2.4 0-4.6 1.1-6.1 2.7l-8.5-4.6c.4-1.3.5-2.8.2-4.3l10.5-4.5c1 1.1 2.3 1.7 3.9 1.7 2.9 0 5.2-2.4 5.2-5.3S30.6 0 27.8 0c-3.2 0-5.7 2.8-5.2 6.1l-10.7 4.5c-1.2-1.4-3.1-2.4-5.1-2.4C3 8.2 0 11.3 0 15c0 3.7 3 6.8 6.7 6.8 1.7 0 3.3-.7 4.5-1.8l8.8 4.8C18 30.2 22 36 27.8 36c4.6 0 8.2-3.7 8.2-8.3s-3.7-8.2-8.2-8.2zm0-16.5C29 3 30 4 30 5.3c0 1.2-1 2.3-2.2 2.3-1.2 0-2.2-1-2.2-2.3-.1-1.3.9-2.3 2.2-2.3zM3 15c0-2.1 1.7-3.8 3.7-3.8 2.1 0 3.7 1.7 3.7 3.8 0 2.1-1.7 3.8-3.7 3.8-2-.1-3.7-1.7-3.7-3.8zm24.8 18c-2.9 0-5.2-2.4-5.2-5.3s2.4-5.3 5.2-5.3c2.9 0 5.2 2.4 5.2 5.3S30.6 33 27.8 33z"/></svg>