<svg xmlns="http://www.w3.org/2000/svg" viewBox="0 0 59.9 45.6"><path d="M59.8 3.4c.5-1.3-.1-2.7-1.4-3.3-1.3-.5-2.7.1-3.3 1.4-.1.2-8 19.7-20.9 21.3V5.9c-.3-2.5-2.4-6.1-6.7-5.8-1.4.1-2.4 1.3-2.3 2.6.1 1.3 1.3 2.4 2.7 2.3 1-.1 1.3.8 1.4 1.4v30.7c-3.7-2-10-6.1-15.7-13.3C5.8 13.8 5 5 5 5c-.1-1.4-1.3-2.4-2.7-2.3C.9 2.8-.1 4 0 5.4c0 .4.9 10.3 9.7 21.5C19.3 39.2 30.5 43.2 31 43.4c.3.1.6.1.8.1.5 0 1-.2 1.4-.5.7-.5 1.1-1.2 1.1-2V28c16 .9 19.3 15 19.5 15.6.3 1.2 1.3 2 2.4 2 .2 0 .3 0 .5-.1 1.4-.3 2.2-1.6 1.9-3 0-.2-2.9-12.9-15.4-17.8C53.7 18.4 59.4 4.2 59.8 3.4z"/></svg>