<?xml version="1.0" standalone="no"?>
<!DOCTYPE svg PUBLIC "-//W3C//DTD SVG 20010904//EN"
 "http://www.w3.org/TR/2001/REC-SVG-20010904/DTD/svg10.dtd">
<svg version="1.0" xmlns="http://www.w3.org/2000/svg"
 width="700.000000pt" height="700.000000pt" viewBox="0 0 700.000000 700.000000"
 preserveAspectRatio="xMidYMid meet">
<metadata>
Created by potrace 1.11, written by Peter Selinger 2001-2013
</metadata>
<g transform="translate(0.000000,700.000000) scale(0.100000,-0.100000)"
fill="#000000" stroke="none">
<path d="M3278 6995 c-2 -1 -41 -6 -88 -9 -47 -4 -101 -9 -120 -12 -90 -13
-272 -45 -335 -59 -38 -9 -81 -18 -94 -21 -83 -17 -378 -113 -456 -148 -16 -8
-57 -25 -90 -39 -145 -60 -357 -176 -520 -282 -343 -224 -707 -576 -912 -881
-59 -88 -59 -88 -12 -62 145 81 454 171 659 193 36 4 79 9 95 11 44 5 375 5
383 0 4 -2 37 -6 73 -10 292 -26 670 -161 929 -331 194 -127 413 -328 535
-490 33 -44 65 -85 70 -91 6 -6 30 -43 55 -82 24 -40 48 -72 51 -72 4 0 18 19
32 43 93 157 312 403 481 539 225 181 524 343 745 403 31 9 63 18 71 20 52 16
256 56 310 61 36 3 71 7 79 10 19 6 334 5 391 -1 188 -22 230 -29 367 -65 115
-30 295 -96 371 -136 23 -12 42 -20 42 -17 0 17 -223 304 -310 397 -95 104
-185 191 -321 311 -78 70 -386 295 -402 295 -2 0 -42 23 -88 51 -93 56 -259
141 -359 184 -36 15 -79 34 -97 41 -35 16 -220 83 -243 89 -8 2 -64 18 -125
34 -180 50 -377 90 -530 106 -22 2 -65 7 -95 11 -52 6 -536 14 -542 9z"/>
<path d="M1458 5085 c-2 -2 -25 -5 -53 -9 -27 -3 -62 -8 -77 -11 -16 -3 -38
-7 -50 -9 -107 -19 -268 -76 -396 -140 -78 -39 -227 -133 -268 -169 -111 -97
-161 -145 -219 -214 -39 -46 -75 -89 -81 -96 -28 -32 -111 -168 -146 -240 -69
-140 -114 -276 -144 -442 -22 -118 -25 -415 -7 -600 11 -114 44 -335 57 -380
2 -5 6 -28 10 -50 5 -22 15 -63 23 -92 8 -29 16 -64 19 -79 9 -50 105 -326
151 -433 56 -131 134 -288 202 -405 28 -49 51 -90 51 -92 0 -12 191 -281 258
-364 116 -142 362 -387 497 -494 61 -48 117 -92 125 -99 170 -135 560 -350
810 -445 100 -38 139 -53 150 -57 3 -1 12 -4 20 -8 16 -6 167 -50 215 -62 17
-5 35 -9 40 -11 25 -8 93 -23 125 -29 19 -3 51 -10 70 -15 19 -5 53 -11 75
-15 22 -3 58 -9 80 -13 56 -10 906 -9 985 1 36 5 79 12 95 17 17 5 93 23 170
41 441 100 829 266 1200 512 168 111 270 191 419 327 401 365 687 785 906
1325 51 127 130 402 160 559 30 158 36 200 57 386 8 77 10 442 2 492 -5 29
-11 71 -14 93 -9 61 -51 212 -79 288 -141 372 -434 695 -790 870 -79 38 -243
102 -288 111 -13 3 -54 12 -93 20 -38 8 -101 19 -140 24 -90 12 -330 8 -420
-8 -629 -107 -1121 -547 -1295 -1160 -54 -189 -57 -248 -59 -1038 -2 -640 -4
-739 -18 -780 -63 -188 -273 -271 -449 -179 -45 23 -101 87 -126 142 l-23 50
-2 705 c-1 388 -5 739 -8 780 -46 589 -373 1079 -892 1339 -118 59 -308 119
-428 136 -22 3 -56 8 -75 12 -32 6 -327 12 -332 8z m236 -1039 c208 -29 405
-221 450 -438 80 -386 -248 -736 -633 -676 -171 27 -338 145 -413 292 -61 119
-81 275 -52 394 55 218 234 390 445 427 18 3 34 7 36 8 4 5 117 0 167 -7z
m3876 -17 c108 -35 153 -62 241 -151 175 -175 206 -457 74 -684 -42 -73 -145
-166 -229 -207 -91 -44 -157 -59 -259 -59 -294 2 -537 237 -552 533 -20 389
359 686 725 568z"/>
</g>
</svg>
