<svg xmlns="http://www.w3.org/2000/svg" viewBox="0 0 45.4 38.2"><path d="M39.2 0h-33C2.8 0 0 2.7 0 5.9v26.4c0 3.3 2.8 5.9 6.2 5.9h33c3.4 0 6.2-2.7 6.2-5.9V5.9c0-3.2-2.8-5.9-6.2-5.9zm2.2 32.3c0 1.1-1 1.9-2.2 1.9h-33C5 34.2 4 33.4 4 32.3V5.9C4 4.9 5 4 6.2 4h33c1.2 0 2.2.9 2.2 1.9v26.4z"/><path d="M32 7.1c-3.5-.7-7 1.4-8.8 2.8-1.9-1.3-5.8-3.5-9.3-2.6-1.5.4-3.5 1.5-4.8 4.7-.3.9-2 6.1 3.9 12.8.2.2 4.1 4.4 8.9 7.2.3.2.7.3 1 .3h.4c.3 0 .7-.1 1-.3 4.8-2.8 8.8-7 9-7.2 6.4-7.2 4-12.7 3.9-12.9-1.3-3.4-3.6-4.5-5.2-4.8zm-1.5 15s-3.3 3.5-7.2 6c-3.9-2.5-7.2-5.9-7.2-5.9-4.5-5.1-3.2-8.5-3.2-8.6 0 0 0-.1.1-.1.7-1.9 1.7-2.2 2-2.3 2.3-.6 5.8 1.8 6.9 2.7.4.3.9.5 1.4.5.5 0 1.1-.1 1.5-.5 1-.9 4.2-3.3 6.5-2.8.4.1 1.5.3 2.4 2.6 0-.1 1.3 3.3-3.2 8.4z"/></svg>