<svg xmlns="http://www.w3.org/2000/svg" viewBox="0 0 51.4 37.2"><path d="M45.7 0h-40C2.6 0 0 2.4 0 5.4v26.4c0 3 2.6 5.4 5.7 5.4h40c3.2 0 5.7-2.4 5.7-5.4V5.4c0-3-2.5-5.4-5.7-5.4zM3.1 32.4c-.1-.2-.1-.4-.1-.6V5.4c0-.5.2-.9.4-1.3 2 2 7.2 7.3 13.9 14.1-5.7 3.8-12 11.5-14.2 14.2zM6.5 3h38.6c-8.6 7-15.3 16.1-15.5 16.4-.9 1.1-1.8 1.6-2.9 1.7-2.2.1-4.3-1.9-4.3-2C15.2 11.8 9.3 5.8 6.5 3zm41.6 1.4c.2.3.3.7.3 1v26.4c0 .4-.1.8-.3 1.1C45.9 31 37.3 23.2 34 18.6c2.8-3.5 8.1-9.6 14.1-14.2zM5.6 34.2c2.2-2.8 8.6-10.5 13.9-13.7l.8.8c.1.1 2.9 2.9 6.3 2.9h.3c1.9-.1 3.6-1 5.1-2.8 0 0 .1-.1.2-.3C35.4 25.4 42 31.5 45 34.2H5.7h-.1z"/></svg>