<svg xmlns="http://www.w3.org/2000/svg" viewBox="0 0 122.3 110.7"><path d="M85.5 87.6c.6-.7.9-1.6.8-2.6l-1.8-16c-.2-1.9-1.9-3.3-3.9-3.1L14.2 73c-1.9.2-3.3 1.9-3.1 3.9L12.9 93c.2 1.8 1.7 3.1 3.5 3.1h.4L55.4 92l27.8-3c.8-.2 1.7-.6 2.3-1.4zm-19 .1l-1.8-17 7.5-.8 1.8 17-7.5.8zm-10 1.1l-1.8-17 7-.8 1.8 17-7 .8zM46 89.9l-1.8-17 7.5-.8 1.8 17-7.5.8zM35.9 91l-1.8-17 7-.8 1.8 17-7 .8zm-10.5 1.1l-1.8-17 7.5-.8 1.8 17-7.5.8zm-9 1c-.3 0-.5-.2-.6-.4l-1.7-16.1c0-.3.2-.5.4-.6l6-.6 1.8 17-5.9.7zm60.7-6.5l-1.8-17 5.8-.6c.3 0 .5.2.5.4l1.7 16.1c0 .2-.1.3-.1.4 0 .1-.2.2-.3.2l-5.8.5zM14.4 55.1c-.8-.1-1.5.6-1.5 1.5 0 .3-.1 6.5 1 11.4.2.7.8 1.2 1.5 1.2h.3c.8-.2 1.3-1 1.2-1.8-1-4.6-.9-10.7-.9-10.7-.1-.9-.8-1.6-1.6-1.6zM15 48.4h.1c.8 0 1.4-.6 1.5-1.4 0 0 .4-4.2 4.1-10.2.4-.7.2-1.6-.5-2.1s-1.6-.2-2.1.5c-4.1 6.6-4.5 11.3-4.5 11.5 0 .9.6 1.7 1.4 1.7zM23.4 31.2c.4 0 .8-.2 1.1-.5 0 0 3.4-3.9 8.2-5.8h.1c.3.4.6.7 1 1.1.3.3.7.4 1 .4.4 0 .8-.2 1.1-.5.6-.6.6-1.5 0-2.1-2.5-2.5-3.6-6.3-3.6-6.3-.2-.8-1-1.3-1.8-1.1-.8.2-1.3 1-1.1 1.8 0 .1.6 2 1.7 4.1-5.2 2.3-8.7 6.2-8.8 6.4-.5.6-.5 1.6.2 2.1.2.2.6.4.9.4zM75.9 50.2c0 .1 1.4 6 1.4 10.7 0 .8.7 1.5 1.5 1.5s1.5-.7 1.5-1.5c0-5-1.4-11.1-1.5-11.4-.2-.8-1-1.3-1.8-1.1-.8.2-1.3 1-1.1 1.8zM73.1 41c.2.7.8 1.1 1.4 1.1.1 0 .3 0 .4-.1.8-.2 1.3-1.1 1-1.9-.1-.2-1.4-4.7-6.9-10.3-.6-.6-1.5-.6-2.1 0-.6.6-.6 1.5 0 2.1 5 5 6.2 9 6.2 9.1zM52.3 21.2c-.1.8.4 1.6 1.2 1.7 5 .9 8.2 3.6 8.3 3.6.3.2.6.4 1 .4s.8-.2 1.1-.5c.5-.6.5-1.6-.1-2.1-.1-.1-3.8-3.3-9.7-4.3-.8-.2-1.6.4-1.8 1.2zM29.6 13.6c.9 0 1.5-.6 1.6-1.4.1-3.3 2.4-5.7 2.4-5.7.6-.6.6-1.5 0-2.1-.6-.6-1.5-.6-2.1 0-.1.1-3.1 3.2-3.3 7.7-.1.8.6 1.5 1.4 1.5zM41.2 24.5c-.8-.1-1.6.4-1.7 1.2-.1.8.4 1.6 1.2 1.7.1 0 .4.1.8.1 1.3 0 4.2-.3 8.6-2.4.7-.4 1.1-1.2.7-2-.4-.7-1.2-1.1-2-.7-4.9 2.4-7.5 2.1-7.6 2.1zM51.6 16.6c-.3.8.1 1.6.8 1.9.2.1.4.1.6.1.6 0 1.2-.4 1.4-.9.1-.2 1.7-4.3-1.9-10.7-.4-.7-1.3-1-2-.6s-1 1.3-.6 2c2.7 5.1 1.7 8 1.7 8.2zM39.4 3.2s3.3-.8 6.1.7c.2.1.4.1.6.1.5 0 1.1-.3 1.3-.8.4-.7.1-1.6-.6-2-3.8-2-8-1-8.1-.9-.8.2-1.3 1-1.1 1.8.2.8 1 1.3 1.8 1.1zM9 20.5c1.4.5 2.7 1 3.3 1.4.2.2.5.2.8.2.5 0 1-.3 1.3-.7.4-.7.2-1.6-.5-2.1-1-.6-2.7-1.3-4.6-1.9.1-1.2.3-2.4.4-3.6.1-.8-.5-1.6-1.3-1.7-.8-.1-1.6.5-1.7 1.3-.1.5-.2 1.7-.3 3-2.2-.7-4.1-1.2-4.5-1.3-.8-.2-1.6.3-1.8 1.1-.2.8.3 1.6 1.1 1.8 1.1.3 3 .8 5 1.4-.2 2.3-.4 4.5-.3 5.2.1.8.7 1.3 1.5 1.3h.2c.8-.1 1.4-.8 1.3-1.7-.2-.1-.1-1.7.1-3.7zM100.1 94l22.2-65.8c.1-.2.1-.4.1-.5-.1-1.6-.9-4.6-3.8-5.6s-5.4.9-6.4 2.1c-.1.1-.2.3-.3.5L89.7 90.5v.2c-2.5.8-3.9 2.7-4 2.8-1.4 1.8-2.2 5.6-1.2 8.7 1.1 3.4-.5 5.6-.6 5.7-.3.4-.4.9-.3 1.4.1.5.5.8 1 1 1 .3 2.1.5 3.2.5 2.4 0 4.3-.7 4.4-.8 4.7-1.8 6.6-4.4 7-5 3.1-4.3 2.2-8 .6-10.4l.3-.6zm-2.6-1.8c-1.5-1.1-3.1-1.7-4.6-1.9l1.4-4.2 4.7 1.6-1.5 4.5zm17.1-66.3c.4-.4 1.6-1.5 3-1 1.3.4 1.7 2 1.7 2.6L100 84.9l-4.7-1.6 19.3-57.4zm-17.9 77.3l-.1.1s-1.4 2.3-5.5 3.8c0 0-1.5.6-3.3.6h-.5c.6-1.5.9-3.8 0-6.5-.7-2.1 0-4.9.7-5.9 0 0 1.6-2 4-2 1.3 0 2.6.5 3.9 1.5.5.3 4.4 3.6.8 8.4z"/></svg>