<svg xmlns="http://www.w3.org/2000/svg" viewBox="0 0 23 22.6"><path d="M22.9 5.9c-.1-2-1-3.7-2.7-4.8C18.9.3 17.4 0 15.9 0 12.6 0 9.3-.1 6 .1 2.8.3.5 2.5.2 5.7 0 7.5.1 9.4 0 11.3c.1 1.8.1 3.7.2 5.6.1 1.7.8 3.1 2.2 4.2 1.2 1 2.7 1.4 4.3 1.4 3.5 0 6.9.1 10.4-.1 2.2-.1 4-1.1 5.1-3.1.7-1.2.8-2.5.8-3.8 0-3.2 0-6.4-.1-9.6zm-2 10c0 1.5-.4 2.9-1.7 3.8-.9.6-1.9.8-2.9.8H6.7c-1.5 0-2.8-.5-3.7-1.8-.5-.8-.7-1.6-.8-2.5v-4.9c0-1.6-.1-3.3 0-4.9.2-2.8 1.7-4.2 4.6-4.3C9.9 2 13.1 2 16.2 2c1.5 0 2.9.4 3.8 1.7.6.9.8 1.9.9 2.9.1 3.2.1 6.2 0 9.3zM11.6 5.5c-3.3 0-5.9 2.6-5.9 5.8 0 3.3 2.6 5.8 5.9 5.8 3.2 0 5.9-2.6 5.9-5.8-.1-3.2-2.7-5.8-5.9-5.8zm-.1 9.6c-2.2 0-3.8-1.7-3.8-3.8 0-2.1 1.7-3.7 3.9-3.7 2.1 0 3.8 1.7 3.8 3.8 0 2-1.7 3.7-3.9 3.7zm6.2-11.2c-.7 0-1.4.6-1.4 1.4 0 .7.6 1.4 1.4 1.4.7-.1 1.3-.7 1.3-1.5 0-.7-.6-1.3-1.3-1.3z"/></svg>
