<svg xmlns="http://www.w3.org/2000/svg" viewBox="0 0 53.6 53.3"><path d="M53.3 14C53.1 9.2 51 5.3 47 2.6 44 .6 40.6 0 37.2 0 29.4 0 21.7-.1 14 .3 6.4.7 1.2 5.8.5 13.5.1 17.8.2 22.2 0 26.7c.1 4.3.1 8.7.5 13.2.3 3.9 2 7.4 5.1 10 2.9 2.4 6.3 3.4 9.9 3.4 8 .1 16.1.1 24.1-.2 5.2-.2 9.4-2.7 12-7.4 1.5-2.8 1.9-5.9 1.9-9.1.1-7.6.1-15.1-.2-22.6zm-4.5 23.6c-.1 3.5-1 6.7-4 9-2 1.5-4.4 2-6.8 2-7.5.1-14.9.1-22.4 0-3.5-.1-6.6-1.1-8.7-4.2-1.2-1.8-1.7-3.9-1.8-6-.1-4-.1-7.9-.1-11.8 0-3.8-.2-7.7 0-11.5C5.5 8.6 8.9 5 15.8 4.9c7.3-.2 14.7-.1 22 0 3.5.1 6.7.9 8.9 4 1.5 2.1 2 4.5 2 6.9.1 7.3.2 14.5.1 21.8z"/><path d="M27 13c-7.7 0-13.8 6-13.8 13.6 0 7.7 6.1 13.8 13.8 13.8 7.5 0 13.7-6.1 13.7-13.6C40.6 19.2 34.5 13 27 13zm-.1 22.6c-5 0-9-4-8.9-9 0-4.9 4-8.8 9-8.8s8.9 3.9 8.9 8.9c-.1 5-4 8.9-9 8.9zM41.2 9.2c-1.7 0-3.2 1.5-3.2 3.2 0 1.7 1.5 3.2 3.2 3.2 1.8 0 3.2-1.5 3.2-3.3-.1-1.6-1.5-3.1-3.2-3.1z"/></svg>