<svg xmlns="http://www.w3.org/2000/svg" viewBox="0 0 102.2 116.4"><path d="M101.1 109c-7.9-2.2-11.4-.9-16.8 1-2.4.8-5.1 1.8-8.8 2.7-7.7 1.9-14.7-.3-18.7-2 15.5-6 26.6-20.8 26.6-38.2 0-22.6-18.7-41-41.7-41S0 50 0 72.5s18.7 41 41.7 41c3.7 0 7.4-.5 10.8-1.4.2.1.4.2.8.3 2.6 1.2 8.6 4 16.1 4 2.2 0 4.5-.2 6.9-.8 3.9-.9 6.7-2 9.1-2.8 5.2-1.8 8-2.9 15-.9.8.2 1.6-.2 1.8-1 .1-.9-.3-1.7-1.1-1.9zM24.7 73.3c1.8 0 4.8 0 8.8.4-.1 3.8-.6 9.1-1.9 11.5-2.9-3.7-5.2-7.8-6.9-11.9zm11.8.8c1.9.3 3.9.6 6.1 1.1.1 1.1.7 8-1.9 18.9-2.7-2-5-4.2-7-6.5 2.2-2.9 2.7-10.1 2.8-13.5zm7 21.2c2.3-9.8 2.3-16.5 2.1-19.2 2.2.6 4.5 1.4 6.8 2.3v.7c.2 2.6.6 9.4-2.1 19.5-.4.3-.8.6-1.3.8-2.1-1-4.1-2.2-6-3.4.3-.3.4-.5.5-.7zm12-15.7c3.1 1.4 6.1 3 9.1 5.1-3.4 4.6-7 8.2-10.5 11 1.7-7.8 1.5-13.5 1.4-16.1zm10.8 2.6c-18.2-12.4-38.7-12-42.7-11.8-.7-1.9-1.3-3.8-1.8-5.7 3.3-.5 28.7-3.7 48.5 10.8-1.2 2.4-2.6 4.6-4 6.7zm5.4-9.5c-21.4-15.3-47.8-11.4-50.6-11-.6-2.8-1-5.5-1.3-8 4.4-.7 34.5-4.7 54.4 12.7-.7 2.3-1.6 4.4-2.5 6.3zm5.4-15.3c-.5 2.1-1.1 4.1-1.8 6.1-20.8-17.4-50.2-13.6-55.7-12.7-.2-2.3-.2-4.3-.2-5.9h.1c.3-.1 30.8-11.4 56.2 9.7.5.9 1 1.8 1.4 2.8zM70.3 47c-22.1-13.3-45.6-7-50.8-5.4v-.2c6.3-4.3 13.9-6.9 22.1-6.9 11.4.1 21.6 4.9 28.7 12.5zm-53.9-3.2c-.3 10.4 1.3 42.5 29.5 57.3-3.1 1.7-6.1 3-8.8 3.9C8.7 93.9 8.6 54.7 8.7 52.8c2.1-3.4 4.7-6.4 7.7-9zM3 72.5c0-5.1 1-10 2.9-14.4.9 11.4 5.4 37.5 26.9 48.2-3.2.8-5.5 1.1-6.2 1.1C12.7 101.7 3 88.2 3 72.5zm29.7 37c4.1-1 9.7-2.8 15.8-6.4C58.7 97.2 72 85.4 78.9 62.2c1 3.3 1.5 6.8 1.5 10.4 0 20.9-17.4 38-38.7 38-3.1-.1-6.1-.5-9-1.1zM30.5 25.4c.1.4.3.8.7 1 .4.2.8.3 1.3.1 0 0 3.6-1.3 8.9-1.3 3.1 0 6.2.5 9.1 1.3.1 0 .3.1.4.1.3 0 .6-.1.8-.2.4-.2.6-.6.7-1l3.1-18.3c.1-.6-.2-1.2-.7-1.6-.6-.3-1.2-.2-1.7.2l-6.4 5.6L42.3.9c-.2-.6-.8-.9-1.4-.9-.6 0-1.2.4-1.4 1l-3.3 10.1-6.3-4.7c-.5-.4-1.2-.4-1.7-.1-.5.3-.8.9-.7 1.5l3 17.6zM36 14.8c.4.3.9.4 1.3.2.5-.1.8-.5 1-1L41 5.7l3.5 8.5c.2.4.6.8 1 .9.5.1 1 0 1.3-.3l4.8-4.2-2.1 12.5c-2.7-.7-5.5-1-8.3-1-3.6 0-6.5.6-8.2 1L30.9 11l5.1 3.8z"/></svg>